<mxfile host="65bd71144e">
    <diagram id="zqidO0Sj8PtIXZ6qDlMv" name="Page-1">
        <mxGraphModel dx="678" dy="1103" grid="1" gridSize="10" guides="1" tooltips="1" connect="1" arrows="1" fold="1" page="1" pageScale="1" pageWidth="827" pageHeight="1169" math="0" shadow="0">
            <root>
                <mxCell id="0"/>
                <mxCell id="1" parent="0"/>
                <mxCell id="13" style="edgeStyle=none;html=1;entryX=0.5;entryY=0;entryDx=0;entryDy=0;fontSize=15;" edge="1" parent="1" source="2" target="4">
                    <mxGeometry relative="1" as="geometry"/>
                </mxCell>
                <mxCell id="2" value="" style="ellipse;fillColor=#000000;strokeColor=none;" vertex="1" parent="1">
                    <mxGeometry x="160" y="40" width="30" height="30" as="geometry"/>
                </mxCell>
                <mxCell id="15" style="edgeStyle=none;html=1;entryX=0;entryY=0.5;entryDx=0;entryDy=0;fontSize=15;" edge="1" parent="1" source="4" target="5">
                    <mxGeometry relative="1" as="geometry"/>
                </mxCell>
                <mxCell id="16" style="edgeStyle=none;html=1;entryX=0.5;entryY=0;entryDx=0;entryDy=0;fontSize=15;" edge="1" parent="1" source="4" target="6">
                    <mxGeometry relative="1" as="geometry"/>
                </mxCell>
                <mxCell id="4" value="&lt;font style=&quot;font-size: 15px&quot;&gt;start&lt;br&gt;&lt;div style=&quot;text-align: left&quot;&gt;&lt;span style=&quot;font-size: 12px&quot;&gt;studentBlood = loadBlood();&lt;/span&gt;&lt;/div&gt;&lt;/font&gt;&lt;div style=&quot;text-align: left&quot;&gt;&lt;span&gt;prepareBlood(studentBlood);&lt;/span&gt;&lt;/div&gt;&lt;div style=&quot;text-align: left&quot;&gt;&lt;span&gt;prepareObjects(studentJSON);&lt;/span&gt;&lt;/div&gt;&lt;div style=&quot;text-align: left&quot;&gt;&lt;span&gt;&lt;br&gt;&lt;/span&gt;&lt;/div&gt;" style="html=1;align=center;verticalAlign=top;rounded=1;absoluteArcSize=1;arcSize=10;dashed=0;spacingLeft=5;" vertex="1" parent="1">
                    <mxGeometry x="80" y="100" width="190" height="80" as="geometry"/>
                </mxCell>
                <mxCell id="20" style="edgeStyle=none;html=1;fontSize=15;dashed=1;exitX=0;exitY=0.25;exitDx=0;exitDy=0;" edge="1" parent="1" source="5">
                    <mxGeometry relative="1" as="geometry">
                        <mxPoint x="270" y="125" as="targetPoint"/>
                    </mxGeometry>
                </mxCell>
                <mxCell id="5" value="&lt;span&gt;&lt;span style=&quot;font-size: 15px&quot;&gt;loadBlood&lt;br&gt;&lt;/span&gt;fetch blood URL&lt;br&gt;return blood data&lt;br&gt;&lt;/span&gt;" style="html=1;align=center;verticalAlign=top;rounded=1;absoluteArcSize=1;arcSize=10;dashed=0;spacingLeft=5;" vertex="1" parent="1">
                    <mxGeometry x="340" y="110" width="175" height="60" as="geometry"/>
                </mxCell>
                <mxCell id="17" style="edgeStyle=none;html=1;entryX=0.5;entryY=0;entryDx=0;entryDy=0;fontSize=15;" edge="1" parent="1" source="6" target="8">
                    <mxGeometry relative="1" as="geometry"/>
                </mxCell>
                <mxCell id="6" value="&lt;font&gt;&lt;span style=&quot;font-size: 15px&quot;&gt;prepareBlood(bloodData)&lt;br&gt;&lt;div style=&quot;text-align: left&quot;&gt;&lt;span style=&quot;font-size: 12px&quot;&gt;create blood arrays&lt;/span&gt;&lt;/div&gt;&lt;div style=&quot;text-align: left&quot;&gt;&lt;span style=&quot;font-size: 12px&quot;&gt;pureBloods = bloodData.pure;&lt;/span&gt;&lt;/div&gt;&lt;div style=&quot;text-align: left&quot;&gt;&lt;span style=&quot;font-size: 12px&quot;&gt;halfBloods = bloodData.half;&lt;/span&gt;&lt;/div&gt;&lt;/span&gt;&lt;/font&gt;" style="html=1;align=center;verticalAlign=top;rounded=1;absoluteArcSize=1;arcSize=10;dashed=0;spacingLeft=5;" vertex="1" parent="1">
                    <mxGeometry x="78.75" y="230" width="192.5" height="90" as="geometry"/>
                </mxCell>
                <mxCell id="18" style="edgeStyle=none;html=1;entryX=0.5;entryY=0;entryDx=0;entryDy=0;fontSize=15;" edge="1" parent="1" source="8" target="10">
                    <mxGeometry relative="1" as="geometry"/>
                </mxCell>
                <mxCell id="8" value="&lt;font&gt;&lt;span style=&quot;font-size: 15px&quot;&gt;prepareObjects(jsonData)&lt;/span&gt;&lt;br&gt;&lt;div style=&quot;text-align: left&quot;&gt;displayList(activeArray, pureBloods, halfBloods)&lt;/div&gt;&lt;/font&gt;" style="html=1;align=center;verticalAlign=top;rounded=1;absoluteArcSize=1;arcSize=10;dashed=0;whiteSpace=wrap;spacingLeft=5;" vertex="1" parent="1">
                    <mxGeometry x="81.25" y="360" width="190" height="60" as="geometry"/>
                </mxCell>
                <mxCell id="19" style="edgeStyle=none;html=1;entryX=0;entryY=0.5;entryDx=0;entryDy=0;fontSize=15;" edge="1" parent="1" source="10" target="12">
                    <mxGeometry relative="1" as="geometry"/>
                </mxCell>
                <mxCell id="10" value="&lt;font&gt;&lt;span style=&quot;font-size: 15px&quot;&gt;displayList(students)&lt;/span&gt;&lt;br&gt;&lt;div style=&quot;text-align: left&quot;&gt;students.forEach(determineBloodStatus);&lt;/div&gt;&lt;/font&gt;" style="html=1;align=center;verticalAlign=top;rounded=1;absoluteArcSize=1;arcSize=10;dashed=0;spacingLeft=5;whiteSpace=wrap;" vertex="1" parent="1">
                    <mxGeometry x="55" y="460" width="240" height="50" as="geometry"/>
                </mxCell>
                <mxCell id="12" value="&lt;font&gt;&lt;span style=&quot;font-size: 15px&quot;&gt;determineBloodStatus(student)&lt;/span&gt;&lt;br&gt;&lt;div style=&quot;text-align: left&quot;&gt;check if last name is in half/pure and set accordingly, if not, set to muggleborn&lt;/div&gt;&lt;div style=&quot;text-align: left&quot;&gt;&lt;br&gt;&lt;/div&gt;&lt;div style=&quot;text-align: left&quot;&gt;e.g.:&lt;/div&gt;&lt;div style=&quot;text-align: left&quot;&gt;&lt;br&gt;&lt;/div&gt;&lt;div style=&quot;text-align: left&quot;&gt;if ( pureBloods.includes(student.lastName)) {&lt;/div&gt;&lt;div style=&quot;text-align: left&quot;&gt;student.bloodStatus = &quot;Pure Blood&quot;;&lt;/div&gt;&lt;div style=&quot;text-align: left&quot;&gt;}&lt;/div&gt;&lt;/font&gt;" style="html=1;align=center;verticalAlign=top;rounded=1;absoluteArcSize=1;arcSize=10;dashed=0;whiteSpace=wrap;spacingLeft=5;" vertex="1" parent="1">
                    <mxGeometry x="360" y="405" width="242.5" height="160" as="geometry"/>
                </mxCell>
                <mxCell id="21" value="blood data" style="text;html=1;resizable=0;autosize=1;align=center;verticalAlign=middle;points=[];fillColor=none;strokeColor=none;rounded=0;fontSize=9;" vertex="1" parent="1">
                    <mxGeometry x="280" y="100" width="60" height="20" as="geometry"/>
                </mxCell>
                <mxCell id="22" value="BLOOD STATUS" style="text;html=1;resizable=0;autosize=1;align=center;verticalAlign=middle;points=[];fillColor=none;strokeColor=none;rounded=0;fontSize=25;" vertex="1" parent="1">
                    <mxGeometry x="270" y="30" width="200" height="40" as="geometry"/>
                </mxCell>
            </root>
        </mxGraphModel>
    </diagram>
</mxfile>